<svg width="40" height="40" viewBox="0 0 40 40" fill="none" xmlns="http://www.w3.org/2000/svg">
<path d="M19.9413 0.238281C8.96925 0.238281 0.074707 9.13291 0.074707 20.105C0.074707 31.0771 8.96933 39.9716 19.9414 39.9716C30.9135 39.9716 39.8081 31.077 39.8081 20.105C39.8081 9.13299 30.9135 0.238281 19.9414 0.238281H19.9413ZM14.18 28.7863H9.86135V14.881H14.18V28.7863V28.7863ZM12.02 12.981C10.6364 12.981 9.51473 11.8592 9.51473 10.4756C9.51473 9.09197 10.6365 7.9703 12.0201 7.9703C13.4037 7.9703 14.5254 9.09197 14.5254 10.4756C14.5284 11.8592 13.4091 12.9833 12.0255 12.9864H12.02V12.981ZM30.3654 28.7876H26.0467V22.0276C26.0467 20.4129 26.016 18.3409 23.8013 18.3409C21.5559 18.3409 21.2106 20.097 21.2106 21.9103V28.7876H16.892V14.8862H21.0373V16.7862H21.092C21.9358 15.34 23.5082 14.4767 25.1814 14.5409C29.5561 14.5409 30.3641 17.4182 30.3641 21.1635L30.3654 28.7876H30.3654Z" fill="white"/>
</svg>
