<svg width="443" height="83" viewBox="0 0 443 83" fill="none" xmlns="http://www.w3.org/2000/svg">
<g clip-path="url(#clip0_2028_9496)">
<path d="M232.636 63.6344H225.941V66.7685H233.367L233.085 68.7691H223.483V56.9991H233.002V58.9997H225.941V61.6337H232.636V63.6344Z" fill="#ABB3B8"/>
<path d="M243.565 56.3156V66.3351C243.565 67.1353 243.565 67.9688 243.582 68.7691H241.273C241.24 68.4856 241.223 68.0354 241.207 67.6854C240.741 68.3522 240.11 69.0025 238.266 69.0025C235.874 69.0025 234.13 67.2019 234.13 64.5678C234.13 61.7004 236.372 59.9833 238.515 59.9833C240.276 59.9833 240.957 60.6502 241.207 61.0003V56.3156H243.565ZM238.914 67.1353C240.525 67.1353 241.273 66.0849 241.273 64.4845C241.273 62.884 240.675 61.8338 238.947 61.8338C237.336 61.8338 236.555 63.1342 236.555 64.5179C236.555 65.935 237.386 67.1353 238.914 67.1353Z" fill="#ABB3B8"/>
<path d="M253.664 66.2683C253.664 67.1019 253.648 67.9355 253.664 68.769H251.372C251.339 68.5356 251.339 68.0688 251.322 67.6187C250.89 68.3856 250.209 69.0024 248.398 69.0024C246.604 69.0024 245.209 67.9688 245.209 65.468V60.2166H247.551V65.0679C247.551 66.2517 248 67.1352 249.246 67.1352C250.724 67.1352 251.305 66.2683 251.305 64.1343V60.2166H253.664V66.2683Z" fill="#ABB3B8"/>
<path d="M263.946 65.9515C263.564 67.5354 262.202 69.0024 259.527 69.0024C256.321 69.0024 254.86 66.9351 254.86 64.4844C254.86 62.1338 256.521 59.9833 259.527 59.9833C262.75 59.9833 263.763 62.0672 263.896 63.0841H261.537C261.338 62.5006 260.84 61.7671 259.544 61.7671C258.016 61.7671 257.268 62.9007 257.268 64.4678C257.268 65.985 257.982 67.2019 259.527 67.2019C260.64 67.2019 261.222 66.7517 261.587 65.9515H263.946V65.9515Z" fill="#ABB3B8"/>
<path d="M273.314 66.4517C273.314 67.4853 273.364 68.5856 273.38 68.769H271.171C271.105 68.5356 271.071 67.9688 271.071 67.7188C270.606 68.5023 269.626 69.0025 267.965 69.0025C265.606 69.0025 264.676 67.5687 264.676 66.2183C264.676 64.001 266.653 63.3676 269.145 63.3676H271.022V63.0508C271.022 62.2839 270.689 61.617 269.261 61.617C267.948 61.617 267.65 62.1505 267.517 62.734H265.158C265.241 61.6503 265.988 59.9833 269.228 59.9833C272.732 59.9833 273.314 61.6503 273.314 63.0841V66.4517ZM271.022 64.9013H269.178C267.633 64.9013 266.968 65.2846 266.968 66.1016C266.968 66.7517 267.467 67.2852 268.596 67.2852C270.324 67.2852 271.022 66.4016 271.022 65.118V64.9013Z" fill="#ABB3B8"/>
<path d="M274.027 60.2166H275.605V57.616H277.964V60.2166H280.024V61.9504H277.964V65.9015C277.964 66.7185 278.147 67.0853 279.011 67.0853C279.243 67.0853 279.542 67.0686 279.775 67.0185V68.6524C279.343 68.8024 278.778 68.8357 278.197 68.8357C276.203 68.8357 275.605 67.9689 275.605 66.2851V61.9504H274.027V60.2166V60.2166Z" fill="#ABB3B8"/>
<path d="M281.236 58.3995V56.3156H283.595V58.3995H281.236ZM281.236 60.2166H283.595V68.7691H281.236V60.2166Z" fill="#ABB3B8"/>
<path d="M294.359 64.4844C294.359 67.0352 292.631 69.0024 289.508 69.0024C286.418 69.0024 284.791 66.8518 284.791 64.4844C284.791 62.1005 286.485 59.9833 289.608 59.9833C292.814 59.9833 294.359 62.3172 294.359 64.4844ZM287.199 64.4844C287.199 65.9182 288.03 67.1853 289.575 67.1853C291.186 67.1853 291.933 65.9515 291.933 64.5179C291.933 63.1008 291.169 61.7837 289.558 61.7837C287.947 61.7837 287.199 63.0508 287.199 64.4844V64.4844Z" fill="#ABB3B8"/>
<path d="M295.57 62.3672C295.57 61.6503 295.57 60.8334 295.554 60.2166H297.846C297.879 60.4667 297.896 61.0502 297.913 61.4669C298.295 60.8001 299.108 59.9833 300.82 59.9833C302.896 59.9833 304.158 61.267 304.158 63.5175V68.769H301.783V63.9011C301.783 62.7841 301.351 61.8337 300.022 61.8337C298.594 61.8337 297.929 62.8674 297.929 64.5512V68.769H295.57V62.3672V62.3672Z" fill="#ABB3B8"/>
<path d="M209.218 62.1408H213.709C215.278 62.1408 216.285 62.987 216.285 64.2327C216.285 65.5489 215.231 66.4891 213.709 66.4891H209.218V62.1408ZM209.218 68.769H213.756C217.035 68.769 218.721 66.7006 218.721 64.2327C218.721 61.7883 217.011 59.861 213.756 59.861H206.759V72.2711H209.218V68.769V68.769ZM176.105 65.3609H185.26V59.861H182.825V63.1045H173.67V68.769H176.105V65.3609ZM204.417 59.861V68.769H201.982V61.9998L196.01 68.9335L190.038 61.9763V68.769H187.602V59.861H191.326L196.057 65.3609L200.834 59.861H204.417Z" fill="#ABB3B8"/>
<path d="M185.26 66.4891L182.825 68.0873V72.271H185.26V66.4891V66.4891ZM173.67 56.2883H176.105V60.4015L173.67 61.9998V56.2883V56.2883Z" fill="#ABB3B8"/>
<path d="M157.213 47.8466H158.833V81.6797L157.213 82.8613V47.8466Z" fill="white"/>
<path d="M318.995 47.8466H320.615V81.6797L318.995 82.8613V47.8466Z" fill="white"/>
<path d="M62.3277 62.8342C62.3277 66.1184 60.1351 69.0191 55.9656 69.0191C52.0619 69.0191 49.7529 66.2851 49.7529 62.8508C49.7529 59.5998 52.1616 56.749 56.0653 56.749C60.0521 56.749 62.3277 59.6166 62.3277 62.8342ZM52.3443 62.8175C52.3443 65.1348 53.6069 67.052 56.0986 67.052C58.6234 67.052 59.7199 65.0014 59.7199 62.8675C59.7199 60.6668 58.5404 58.6996 55.9823 58.6996C53.5572 58.6996 52.3443 60.6668 52.3443 62.8175H52.3443Z" fill="#ABB3B8"/>
<path d="M63.7882 62.4173C63.7882 61.6836 63.7882 60.9502 63.7719 60.2166H66.0142C66.0642 60.5501 66.0806 60.9502 66.0806 61.3003C66.5291 60.6501 67.3431 59.9833 68.7384 59.9833C70.2004 59.9833 70.9644 60.6501 71.3132 61.4504C71.7617 60.7835 72.5591 59.9833 74.2038 59.9833C75.9646 59.9833 77.3599 61.0168 77.3599 63.5676V68.769H75.0342V63.6176C75.0342 62.8006 74.7684 61.8004 73.5225 61.8004C72.4263 61.8004 71.7454 62.5006 71.7454 64.051V68.769H69.4197V63.6009C69.4197 62.684 69.1039 61.8004 67.8913 61.8004C66.6288 61.8004 66.1139 62.734 66.1139 64.101V68.769H63.7882V62.4173H63.7882Z" fill="#ABB3B8"/>
<path d="M79.1525 62.3672C79.1525 61.6503 79.1525 60.8334 79.1361 60.2166H81.4285C81.4615 60.4667 81.4782 61.0502 81.4948 61.4669C81.877 60.8001 82.6907 59.9833 84.4018 59.9833C86.4784 59.9833 87.7406 61.267 87.7406 63.5175V68.769H85.3652V63.9011C85.3652 62.7841 84.9334 61.8337 83.6044 61.8337C82.1758 61.8337 81.5115 62.8674 81.5115 64.5512V68.769H79.1525V62.3672V62.3672Z" fill="#ABB3B8"/>
<path d="M89.5332 58.3995V56.3156H91.8923V58.3995H89.5332ZM89.5332 60.2166H91.8923V68.7691H89.5332V60.2166Z" fill="#ABB3B8"/>
<path d="M93.9182 62.4173C93.9182 61.6836 93.9182 60.9502 93.9016 60.2166H96.1442C96.1942 60.5501 96.2106 60.9502 96.2106 61.3003C96.6591 60.6501 97.4731 59.9833 98.8684 59.9833C100.33 59.9833 101.094 60.6501 101.443 61.4504C101.892 60.7835 102.689 59.9833 104.334 59.9833C106.095 59.9833 107.49 61.0168 107.49 63.5676V68.769H105.164V63.6176C105.164 62.8006 104.898 61.8004 103.653 61.8004C102.556 61.8004 101.875 62.5006 101.875 64.051V68.769H99.5497V63.6009C99.5497 62.684 99.2339 61.8004 98.0214 61.8004C96.7588 61.8004 96.2439 62.734 96.2439 64.101V68.769H93.9182V62.4173Z" fill="#ABB3B8"/>
<path d="M111.027 65.0514C111.11 66.285 111.973 67.2186 113.385 67.2186C114.515 67.2186 115.063 66.8352 115.429 66.2017H117.771C117.273 67.652 116.027 69.0025 113.352 69.0025C109.997 69.0025 108.684 66.7017 108.684 64.5012C108.684 62.0339 110.346 59.9833 113.319 59.9833C116.608 59.9833 117.887 62.3006 117.887 64.4844C117.887 64.6678 117.887 64.8179 117.871 65.0514H111.027V65.0514ZM115.495 63.5676C115.429 62.8006 115.013 61.6671 113.319 61.6671C111.791 61.6671 111.176 62.5506 111.06 63.5676H115.495H115.495Z" fill="#ABB3B8"/>
<path d="M128.152 56.3156V66.3351C128.152 67.1353 128.152 67.9688 128.169 68.7691H125.86C125.827 68.4856 125.81 68.0354 125.794 67.6854C125.328 68.3522 124.697 69.0025 122.853 69.0025C120.461 69.0025 118.717 67.2019 118.717 64.5678C118.717 61.7004 120.959 59.9833 123.102 59.9833C124.863 59.9833 125.544 60.6502 125.794 61.0003V56.3156H128.152ZM123.501 67.1353C125.112 67.1353 125.86 66.0849 125.86 64.4845C125.86 62.884 125.262 61.8338 123.534 61.8338C121.923 61.8338 121.142 63.1342 121.142 64.5179C121.142 65.935 121.973 67.1353 123.501 67.1353H123.501Z" fill="#ABB3B8"/>
<path d="M129.995 58.3995V56.3156H132.354V58.3995H129.995ZM129.995 60.2166H132.354V68.7691H129.995V60.2166Z" fill="#ABB3B8"/>
<path d="M142.37 66.4517C142.37 67.4853 142.42 68.5856 142.437 68.769H140.227C140.161 68.5356 140.128 67.9688 140.128 67.7188C139.663 68.5023 138.682 69.0025 137.021 69.0025C134.663 69.0025 133.732 67.5687 133.732 66.2183C133.732 64.001 135.709 63.3676 138.201 63.3676H140.078V63.0508C140.078 62.2839 139.746 61.617 138.317 61.617C137.005 61.617 136.706 62.1505 136.573 62.734H134.214C134.297 61.6503 135.044 59.9833 138.284 59.9833C141.789 59.9833 142.37 61.6503 142.37 63.0841V66.4517H142.37ZM140.078 64.9013H138.234C136.689 64.9013 136.025 65.2846 136.025 66.1016C136.025 66.7517 136.523 67.2852 137.653 67.2852C139.38 67.2852 140.078 66.4016 140.078 65.118V64.9013Z" fill="#ABB3B8"/>
<path d="M36.2193 62.1408H40.7099C42.279 62.1408 43.2861 62.987 43.2861 64.2327C43.2861 65.5489 42.2322 66.4891 40.7099 66.4891H36.2193V62.1408ZM36.2193 68.769H40.7568C44.0355 68.769 45.7217 66.7006 45.7217 64.2327C45.7217 61.7883 44.0121 59.861 40.7568 59.861H33.7602V72.2711H36.2193V68.769V68.769ZM3.10623 65.3609H12.261V59.861H9.82541V63.1045H0.670593V68.769H3.10623V65.3609ZM31.4183 59.861V68.769H28.9826V61.9998L23.0106 68.9335L17.0386 61.9763V68.769H14.603V59.861H18.3267L23.0575 65.3609L27.8351 59.861H31.4183H31.4183Z" fill="#ABB3B8"/>
<path d="M12.261 66.4891L9.82541 68.0873V72.271H12.261V66.4891V66.4891ZM0.670593 56.2883H3.10623V60.4015L0.670593 61.9998V56.2883V56.2883Z" fill="#ABB3B8"/>
<path d="M394.418 63.6343H387.723V66.7684H395.149L394.867 68.769H385.265V56.999H394.784V58.9996H387.723V61.6335H394.418V63.6343H394.418Z" fill="#ABB3B8"/>
<path d="M404.683 66.2683C404.683 67.1019 404.666 67.9355 404.683 68.769H402.391C402.357 68.5356 402.357 68.0688 402.341 67.6187C401.909 68.3856 401.228 69.0024 399.417 69.0024C397.623 69.0024 396.228 67.9688 396.228 65.468V60.2166H398.57V65.0679C398.57 66.2517 399.019 67.1352 400.264 67.1352C401.743 67.1352 402.324 66.2683 402.324 64.1343V60.2166H404.683V66.2683Z" fill="#ABB3B8"/>
<path d="M406.426 62.5339C406.426 61.7671 406.426 60.9835 406.41 60.2165H408.702C408.752 60.5 408.785 61.4336 408.785 61.9838C409.284 60.8001 410.38 59.9498 412.124 59.9833V62.1505C410.181 62.1338 408.785 63.0341 408.785 65.5015V68.769H406.426V62.5339Z" fill="#ABB3B8"/>
<path d="M422.09 64.4843C422.09 67.0351 420.363 69.0023 417.24 69.0023C414.15 69.0023 412.522 66.8517 412.522 64.4843C412.522 62.1004 414.216 59.9832 417.34 59.9832C420.546 59.9832 422.09 62.3171 422.09 64.4843ZM414.931 64.4843C414.931 65.9181 415.761 67.1852 417.306 67.1852C418.918 67.1852 419.665 65.9514 419.665 64.5178C419.665 63.1007 418.901 61.7836 417.29 61.7836C415.678 61.7836 414.931 63.0507 414.931 64.4843V64.4843Z" fill="#ABB3B8"/>
<path d="M423.302 72.4199V62.3171C423.302 61.6169 423.302 60.9168 423.286 60.2164H425.594C425.628 60.3998 425.661 60.9834 425.661 61.4335C426.142 60.6666 427.056 59.9832 428.734 59.9832C430.96 59.9832 432.721 61.8336 432.721 64.3344C432.721 67.2518 430.661 69.0023 428.402 69.0023C426.89 69.0023 426.076 68.3855 425.661 67.802V72.4199H423.302ZM427.986 61.8336C426.276 61.8336 425.594 62.9672 425.594 64.5178C425.594 66.0848 426.392 67.1184 427.953 67.1184C429.498 67.1184 430.295 65.9681 430.295 64.451C430.295 63.1007 429.548 61.8336 427.986 61.8336H427.986Z" fill="#ABB3B8"/>
<path d="M435.81 65.0512C435.893 66.2849 436.756 67.2185 438.168 67.2185C439.298 67.2185 439.846 66.8351 440.211 66.2016H442.554C442.056 67.6519 440.81 69.0023 438.135 69.0023C434.78 69.0023 433.467 66.7016 433.467 64.501C433.467 62.0338 435.129 59.9832 438.102 59.9832C441.391 59.9832 442.67 62.3005 442.67 64.4843C442.67 64.6677 442.67 64.8178 442.654 65.0512H435.81V65.0512ZM440.278 63.5674C440.211 62.8005 439.796 61.667 438.102 61.667C436.574 61.667 435.959 62.5505 435.843 63.5674H440.278Z" fill="#ABB3B8"/>
<path d="M371 62.1408H375.491C377.06 62.1408 378.067 62.987 378.067 64.2327C378.067 65.5489 377.013 66.4891 375.491 66.4891H371V62.1408ZM371 68.769H375.538C378.817 68.769 380.503 66.7006 380.503 64.2327C380.503 61.7883 378.793 59.861 375.538 59.861H368.541V72.2711H371V68.769V68.769ZM337.887 65.3609H347.042V59.861H344.606V63.1045H335.452V68.769H337.887V65.3609ZM366.199 59.861V68.769H363.764V61.9998L357.792 68.9335L351.82 61.9763V68.769H349.384V59.861H353.108L357.839 65.3609L362.616 59.861H366.199Z" fill="#ABB3B8"/>
<path d="M347.042 66.4891L344.607 68.0873V72.271H347.042V66.4891V66.4891ZM335.452 56.2883H337.887V60.4015L335.452 61.9998V56.2883V56.2883Z" fill="#ABB3B8"/>
<path d="M100.093 25.1187H98.0419C97.9619 24.6375 97.8289 23.1404 97.8289 22.3118C96.5768 24.3434 94.6325 25.5197 90.9301 25.5197C84.9633 25.5197 81.3144 21.5901 81.3144 15.6822C81.3144 10.0952 85.0969 5.73804 91.4096 5.73804C97.0563 5.73804 99.4801 8.62501 100.199 11.4319H97.4294C96.7098 9.64078 95.0586 7.92993 91.3826 7.92993C86.6415 7.92993 84.1377 11.2716 84.1377 15.5219C84.1377 20.0128 86.6681 23.301 91.3296 23.301C95.2716 23.301 97.5089 21.296 97.5089 17.5536V16.9921H91.3826V14.7199H100.093V25.1187H100.093Z" fill="white"/>
<path d="M103.345 25.1185V5.01587H105.875V25.1185H103.345Z" fill="white"/>
<path d="M122.496 18.3553C122.496 22.0977 120.072 25.4928 115.224 25.4928C110.67 25.4928 108.113 22.0977 108.113 18.3553C108.113 14.4791 110.83 11.2178 115.358 11.2178C120.019 11.2178 122.496 14.773 122.496 18.3553V18.3553ZM110.723 18.3553C110.723 20.9484 112.348 23.4075 115.304 23.4075C118.394 23.4075 119.886 21.1085 119.886 18.3819C119.886 15.6819 118.261 13.3028 115.251 13.3028C112.188 13.3028 110.723 15.6552 110.723 18.3553Z" fill="white"/>
<path d="M124.816 5.01587H127.346V13.6773C128.011 12.6347 129.45 11.2179 132.353 11.2179C136.109 11.2179 138.826 14.1852 138.826 18.1148C138.826 22.6594 136.029 25.4929 132.193 25.4929C129.29 25.4929 127.985 24.2362 127.292 23.0333C127.266 23.6751 127.266 24.6372 127.212 25.1185H124.789C124.816 23.4077 124.816 22.0175 124.816 20.4672V5.01587V5.01587ZM131.794 13.3563C128.704 13.3563 127.239 15.5216 127.239 18.3285C127.239 21.4027 128.997 23.3274 131.794 23.3274C134.937 23.3274 136.215 20.8682 136.215 18.1948C136.215 15.896 134.91 13.3563 131.794 13.3563V13.3563Z" fill="white"/>
<path d="M153.024 21.777C153.024 23.0868 153.104 24.7977 153.158 25.1184H150.733C150.627 24.6371 150.6 23.5947 150.574 23.14C149.881 24.5302 148.336 25.4928 145.486 25.4928C141.677 25.4928 140.266 23.1671 140.266 21.1351C140.266 17.6868 143.409 16.7245 147.271 16.7245H150.547V16.0028C150.547 14.5326 149.908 13.1424 147.031 13.1424C144.448 13.1424 143.862 14.2919 143.569 15.5215H141.038C141.198 13.7306 142.396 11.2178 147.031 11.2178C151.932 11.2178 153.024 13.6237 153.024 15.8424V21.777V21.777ZM150.547 18.5156H147.324C144.235 18.5156 142.769 19.2105 142.769 21.0282C142.769 22.3652 143.755 23.4878 145.992 23.4878C149.588 23.4878 150.547 21.4026 150.547 19.1036V18.5156Z" fill="white"/>
<path d="M156.302 25.1185V5.01587H158.833V25.1185H156.302Z" fill="white"/>
<path d="M59.2972 14.1872H66.703C69.2908 14.1872 70.9516 15.5826 70.9516 17.637C70.9516 19.8077 69.2135 21.3582 66.703 21.3582H59.2972V14.1872ZM59.2972 25.1182H66.7803C72.1875 25.1182 74.9684 21.7071 74.9684 17.637C74.9684 13.6058 72.1489 10.4272 66.7803 10.4272H55.2417V30.8938H59.2972V25.1182V25.1182ZM4.68771 19.4976H19.7857V10.4272H15.7688V15.7764H0.670898V25.1182H4.68771V19.4976V19.4976ZM51.3794 10.4272V25.1182H47.3626V13.9546L37.5137 25.3895L27.6648 13.9159V25.1182H23.648V10.4272H29.7891L37.5909 19.4976L45.4701 10.4272H51.3794V10.4272Z" fill="white"/>
<path d="M19.7857 21.358L15.7688 23.9938V30.8935H19.7857V21.358V21.358ZM0.670898 4.53516H4.68771V11.3186L0.670898 13.9544V4.53516Z" fill="white"/>
</g>
<defs>
<clipPath id="clip0_2028_9496">
<rect width="442" height="82" fill="white" transform="translate(0.67041 0.861328)"/>
</clipPath>
</defs>
</svg>
