<svg width="41" height="40" viewBox="0 0 41 40" fill="none" xmlns="http://www.w3.org/2000/svg">
<path d="M20.2848 0.220703C9.3127 0.232263 0.427509 9.13625 0.438976 20.1083C0.449229 29.8676 7.54657 38.1743 17.1848 39.7074V25.826H12.1381V20.0834H17.1808V15.7074C17.1808 10.7287 20.1474 7.97405 24.6848 7.97405C26.1749 7.99487 27.6615 8.12451 29.1328 8.36207V13.2501H26.6274C25.0558 13.0413 23.6124 14.146 23.4036 15.7176C23.3756 15.9282 23.3711 16.1412 23.3901 16.3528V20.0782H28.8995L28.0181 25.8209H23.3915V39.7022C34.2245 37.9608 41.5946 27.7672 39.8531 16.9341C38.3076 7.32033 30.022 0.24349 20.2848 0.220703Z" fill="white"/>
</svg>
