<svg width="62" height="60" viewBox="0 0 62 60" fill="none" xmlns="http://www.w3.org/2000/svg">
<path d="M1.71289 50.6745V31.2301C1.71289 15.1218 14.7712 2.06348 30.8795 2.06348C46.9878 2.06348 60.0461 15.1218 60.0461 31.2301V50.6745" stroke="white" stroke-width="3.03277" stroke-linecap="round" stroke-linejoin="round"/>
<path d="M1.71289 52.2967C1.71289 55.5183 4.32456 58.13 7.54623 58.13H11.2163C12.8913 58.13 14.2491 56.7722 14.2491 55.0972V43.5467C14.2491 40.325 11.6374 37.7134 8.41579 37.7134H1.71289V52.2967Z" stroke="white" stroke-width="3.03277" stroke-linecap="round" stroke-linejoin="round"/>
<path d="M26.5538 55.2817H29.8013L29.8013 34.1283H26.5538L26.5538 55.2817Z" fill="#FFE17F"/>
<path d="M23.7894 41.0459H20.5419V55.2815H23.7894V41.0459Z" fill="#FFE17F"/>
<path d="M35.8122 37.6475H32.5647V55.2818H35.8122V37.6475Z" fill="#FFE17F"/>
<path d="M41.8242 30.5098H38.5767V55.2814H41.8242V30.5098Z" fill="#FFE17F"/>
<path d="M60.0463 52.2967C60.0463 55.5183 57.4346 58.13 54.213 58.13H50.4064C48.7315 58.13 47.3736 56.7722 47.3736 55.0972V43.5467C47.3736 40.325 49.9853 37.7134 53.207 37.7134H60.0463V52.2967Z" stroke="white" stroke-width="3.03277" stroke-linecap="round" stroke-linejoin="round"/>
<path d="M41.8242 58.25H20.5419" stroke="#FFE17F" stroke-width="2.7295" stroke-linejoin="round"/>
</svg>
