<svg width="428" height="31" viewBox="0 0 428 31" fill="none" xmlns="http://www.w3.org/2000/svg">
<path d="M159.82 16.125C159.82 12.6262 159.846 9.25875 159.952 7.33822H159.925C159.004 10.1532 155.74 17.7561 153.082 24.1753H150.792C148.765 18.9399 145.211 10.2848 144.185 7.33822H144.159C144.316 9.49557 144.422 13.4416 144.422 16.5986V24.1753H141.974V5.49671H145.764C148.344 11.6001 151.529 19.2558 152.082 20.9921H152.108C152.976 18.6769 156.214 11.2055 158.583 5.49671H162.4V24.1753H159.82V16.125ZM177.722 20.8869C177.722 22.176 177.801 23.8597 177.854 24.1753H175.458C175.353 23.7016 175.327 22.6758 175.301 22.2286C174.616 23.5964 173.089 24.5435 170.273 24.5435C166.509 24.5435 165.114 22.2548 165.114 20.2554C165.114 16.8616 168.22 15.9146 172.037 15.9146H175.274V15.2043C175.274 13.7574 174.642 12.3893 171.8 12.3893C169.247 12.3893 168.668 13.5206 168.378 14.7307H165.878C166.035 12.9682 167.22 10.4952 171.8 10.4952C176.643 10.4952 177.722 12.863 177.722 15.0465V20.8869ZM175.274 17.6773H172.089C169.036 17.6773 167.588 18.3613 167.588 20.1503C167.588 21.4655 168.562 22.5706 170.773 22.5706C174.327 22.5706 175.274 20.5185 175.274 18.2559V17.6773ZM181.198 14.4939C181.198 13.2838 181.198 12.0737 181.171 10.8634H183.619C183.646 11.2581 183.698 12.6523 183.698 13.8626C184.567 11.8105 186.489 10.4688 189.094 10.4952V12.8892C186.041 12.863 183.698 14.7045 183.698 18.6243V24.1753H181.198V14.4939ZM193.649 17.2301C195.07 15.9672 198.913 12.6788 200.993 10.8634H204.151L197.992 16.0462L204.809 24.1753H201.651L196.149 17.4669L193.649 19.4398V24.1753H191.148V4.39161H193.649V17.2301ZM207.127 18.0981C207.259 20.6501 208.996 22.518 211.681 22.518C213.76 22.518 214.919 21.6762 215.629 20.3871H218.13C217.419 22.36 215.55 24.5435 211.549 24.5435C206.785 24.5435 204.6 21.0709 204.6 17.5457C204.6 13.5468 207.285 10.4952 211.497 10.4952C216.55 10.4952 218.34 14.2047 218.34 17.4405C218.34 17.6773 218.34 17.8351 218.314 18.0981H207.127ZM215.734 16.3092C215.603 14.7307 214.76 12.4419 211.47 12.4419C208.733 12.4419 207.417 14.1521 207.18 16.3092H215.734ZM218.895 10.8634H221.553V6.57539H224.054V10.8634H227.528V12.8366H224.054V20.1238C224.054 21.6497 224.449 22.3338 225.896 22.3338C226.265 22.3338 226.818 22.3074 227.212 22.2022V24.0437C226.607 24.2543 225.896 24.3069 225.133 24.3069C222.369 24.3069 221.553 23.0704 221.553 20.4397V12.8366H218.895V10.8634V10.8634ZM238.633 18.5191L236.212 24.1753H233.474L241.502 5.49671H244.714L253.084 24.1753H250.189L247.688 18.5191H238.633ZM246.819 16.2566C244.529 11.1003 243.45 8.65372 243.029 7.39082H243.002C242.608 8.60112 241.344 11.8105 239.449 16.2566H246.819ZM267.326 20.0186C266.668 22.4126 264.589 24.5435 260.798 24.5435C256.061 24.5435 253.77 21.3603 253.77 17.5721C253.77 13.7836 256.35 10.4952 260.825 10.4952C265.326 10.4952 267.01 13.3364 267.3 15.1253H264.799C264.325 13.8626 263.272 12.521 260.798 12.521C257.982 12.521 256.35 14.5993 256.35 17.5195C256.35 20.2816 257.929 22.518 260.798 22.518C262.957 22.518 264.167 21.5181 264.826 20.0186H267.326V20.0186ZM282.199 20.0186C281.542 22.4126 279.462 24.5435 275.671 24.5435C270.934 24.5435 268.643 21.3603 268.643 17.5721C268.643 13.7836 271.223 10.4952 275.698 10.4952C280.199 10.4952 281.884 13.3364 282.173 15.1253H279.673C279.199 13.8626 278.146 12.521 275.671 12.521C272.855 12.521 271.223 14.5993 271.223 17.5195C271.223 20.2816 272.802 22.518 275.671 22.518C277.83 22.518 279.041 21.5181 279.699 20.0186H282.199V20.0186ZM286.044 18.0981C286.175 20.6501 287.913 22.518 290.598 22.518C292.677 22.518 293.835 21.6762 294.546 20.3871H297.046C296.336 22.36 294.467 24.5435 290.466 24.5435C285.701 24.5435 283.517 21.0709 283.517 17.5457C283.517 13.5468 286.202 10.4952 290.413 10.4952C295.467 10.4952 297.257 14.2047 297.257 17.4405C297.257 17.6773 297.257 17.8351 297.231 18.0981H286.044ZM294.651 16.3092C294.519 14.7307 293.677 12.4419 290.387 12.4419C287.649 12.4419 286.333 14.1521 286.096 16.3092H294.651ZM301.075 20.1502C301.549 21.7288 302.891 22.6494 305.313 22.6494C307.866 22.6494 308.761 21.7549 308.761 20.5449C308.761 19.4398 308.103 18.6769 304.707 18.2823C300.022 17.7035 299.153 16.0724 299.153 14.4151C299.153 12.6788 300.522 10.4952 304.786 10.4952C309.393 10.4952 310.682 12.863 310.84 14.4677H308.314C308.129 13.6784 307.576 12.3629 304.655 12.3629C302.181 12.3629 301.654 13.4154 301.654 14.1782C301.654 15.1779 302.286 15.7832 305.339 16.1775C310.34 16.8616 311.261 18.3875 311.261 20.3606C311.261 22.7546 309.445 24.5435 305.155 24.5435C301.259 24.5435 298.996 22.9124 298.548 20.1502H301.075V20.1502ZM315.08 20.1502C315.553 21.7288 316.896 22.6494 319.317 22.6494C321.871 22.6494 322.766 21.7549 322.766 20.5449C322.766 19.4398 322.107 18.6769 318.712 18.2823C314.027 17.7035 313.158 16.0724 313.158 14.4151C313.158 12.6788 314.527 10.4952 318.791 10.4952C323.397 10.4952 324.687 12.863 324.845 14.4677H322.318C322.134 13.6784 321.581 12.3629 318.66 12.3629C316.185 12.3629 315.658 13.4154 315.658 14.1782C315.658 15.1779 316.291 15.7832 319.344 16.1775C324.345 16.8616 325.266 18.3875 325.266 20.3606C325.266 22.7546 323.45 24.5435 319.16 24.5435C315.264 24.5435 313 22.9124 312.553 20.1502H315.08V20.1502ZM336.635 5.4967V24.1753H333.977V5.49671H336.635V5.4967ZM340.164 14.2308C340.164 13.0996 340.164 11.8631 340.137 10.8634H342.559C342.611 11.3107 342.664 12.4158 342.664 13.3364C343.243 12.0473 344.638 10.4952 347.481 10.4952C350.613 10.4952 352.64 12.4158 352.64 16.0724V24.1753H350.113V16.5196C350.113 14.3361 349.297 12.5997 346.796 12.5997C344.033 12.5997 342.664 14.7045 342.664 17.7825V24.1753H340.164V14.2309V14.2308ZM357.116 20.1502C357.59 21.7288 358.932 22.6494 361.354 22.6494C363.907 22.6494 364.802 21.7549 364.802 20.5449C364.802 19.4398 364.144 18.6769 360.748 18.2823C356.063 17.7035 355.194 16.0724 355.194 14.4151C355.194 12.6788 356.563 10.4952 360.827 10.4952C365.434 10.4952 366.723 12.863 366.881 14.4677H364.355C364.17 13.6784 363.617 12.3629 360.696 12.3629C358.222 12.3629 357.695 13.4154 357.695 14.1782C357.695 15.1779 358.327 15.7832 361.38 16.1775C366.381 16.8616 367.302 18.3875 367.302 20.3606C367.302 22.7546 365.486 24.5435 361.196 24.5435C357.3 24.5435 355.037 22.9124 354.589 20.1502H357.116V20.1502ZM369.673 7.39081V4.39161H372.173V7.39081H369.673ZM369.673 10.8634H372.173V24.1753H369.673V10.8634ZM388.362 22.439C388.362 27.4375 386.703 30.3839 381.202 30.3839C375.964 30.3839 374.911 27.3585 374.648 25.8064H377.201C377.596 27.1481 378.57 28.3581 381.334 28.3581C385.23 28.3581 385.887 25.859 385.887 22.5706V21.834C385.071 23.4125 383.65 24.4121 380.886 24.4121C377.122 24.4121 374.516 21.4655 374.516 17.6773C374.516 13.4154 377.596 10.4952 381.202 10.4952C384.256 10.4952 385.493 11.8631 385.887 12.9156C385.887 12.2577 385.914 11.2319 385.966 10.8634H388.388C388.362 12.1525 388.362 13.4416 388.362 14.7307V22.439ZM381.492 22.3074C384.282 22.3074 385.94 20.571 385.94 17.414C385.94 14.336 384.361 12.5997 381.623 12.5997C378.544 12.5997 377.07 15.0727 377.07 17.5721C377.07 20.308 378.886 22.3074 381.492 22.3074ZM394.312 4.3916V13.2576C394.786 12.2841 395.997 10.4952 399.234 10.4952C402.261 10.4952 404.288 12.3629 404.288 16.125V24.1753H401.761V16.5196C401.761 14.2834 400.945 12.5997 398.471 12.5997C395.654 12.5997 394.312 14.8359 394.312 17.6247V24.1753H391.812V4.39161H394.312V4.3916ZM405.632 10.8634H408.291V6.57538H410.791V10.8634H414.266V12.8366H410.791V20.1238C410.791 21.6497 411.186 22.3338 412.634 22.3338C413.002 22.3338 413.555 22.3074 413.95 22.2022V24.0437C413.344 24.2543 412.634 24.3069 411.87 24.3069C409.107 24.3069 408.291 23.0704 408.291 20.4397V12.8366H405.632V10.8634V10.8634ZM417.741 20.1502C418.214 21.7287 419.557 22.6494 421.978 22.6494C424.532 22.6494 425.427 21.7549 425.427 20.5449C425.427 19.4398 424.769 18.6769 421.373 18.2823C416.688 17.7035 415.819 16.0723 415.819 14.4151C415.819 12.6788 417.188 10.4952 421.452 10.4952C426.058 10.4952 427.348 12.863 427.506 14.4677H424.98C424.795 13.6784 424.242 12.3629 421.321 12.3629C418.846 12.3629 418.32 13.4154 418.32 14.1782C418.32 15.1779 418.952 15.7832 422.005 16.1775C427.006 16.8616 427.927 18.3875 427.927 20.3606C427.927 22.7546 426.111 24.5435 421.821 24.5435C417.925 24.5435 415.662 22.9124 415.214 20.1502H417.741V20.1502Z" fill="#00A1E4"/>
<path d="M117.424 13.4181H124.743C127.3 13.4181 128.941 14.7914 128.941 16.8132C128.941 18.9494 127.224 20.4753 124.743 20.4753H117.424V13.4181ZM117.424 24.1756H124.819C130.163 24.1756 132.911 20.8187 132.911 16.8132C132.911 12.8459 130.124 9.71778 124.819 9.71778H113.417V29.8596H117.424V24.1756V24.1756ZM63.4591 18.6443H78.3789V9.71777H74.4095V14.9821H59.4897V24.1756H63.4591V18.6443ZM109.6 9.71778V24.1756H105.631V13.1892L95.8978 24.4426L86.1651 13.151V24.1756H82.1957V9.71777H88.2643L95.9742 18.6442L103.76 9.71777H109.6L109.6 9.71778Z" fill="#1C2F72"/>
<path d="M78.3789 20.4759L74.4095 23.0699V29.8601H78.3789V20.4759ZM59.4897 3.91992H63.4591V10.5957L59.4897 13.1897V3.91992Z" fill="#00A1E4"/>
<path d="M24.2433 15.9414H27.3246C27.3057 19.2932 24.5722 22.014 21.2111 22.014H18.6893V18.9342H21.2111C22.8708 18.9342 24.2244 17.5927 24.2433 15.9414Z" fill="#B2B3B3"/>
<path d="M27.3253 10.1297V11.8756H24.244V10.1297C24.244 8.4595 22.8829 7.0991 21.2118 7.0991H15.4347C13.7598 7.0991 12.4025 8.4595 12.4025 10.1297V18.9343H15.6048V22.0141H12.4025V26.6583C12.4025 29.0125 10.4856 30.9283 8.12641 30.9283H0.398438V23.2082C0.398438 20.8502 2.31531 18.9343 4.67453 18.9343H7.82017V22.0141H4.67453C4.02801 22.0141 3.48357 22.562 3.48357 23.2082V27.8486H8.12641C8.78427 27.8486 9.31735 27.312 9.31735 26.6583V10.1297C9.31735 6.75904 12.0622 4.01562 15.4347 4.01562H21.2118C24.5843 4.01562 27.3253 6.75904 27.3253 10.1297Z" fill="#B2B3B3"/>
<path d="M24.2443 12.8613V15.9411H21.7225C20.0628 15.9411 18.7092 17.2826 18.6903 18.9339H15.6052C15.6241 15.5821 18.3614 12.8613 21.7225 12.8613H24.2443Z" fill="#00A1E4"/>
<path d="M30.5325 12.8613H27.3258V15.9416H30.5325V12.8613Z" fill="#00A1E4"/>
<path d="M33.6132 15.9404V24.7451C33.6132 28.1157 30.8721 30.8591 27.4996 30.8591H21.7225C18.35 30.8591 15.6052 28.1157 15.6052 24.7451V23.0899H18.6903V24.7451C18.6903 26.4153 20.0514 27.7757 21.7225 27.7757H27.4996C29.1707 27.7757 30.5318 26.4153 30.5318 24.7451V15.9404H33.6132Z" fill="#00A1E4"/>
<path d="M45.5531 0.928711V10.746C45.5531 13.6103 43.2204 15.9419 40.3545 15.9419H35.0047V12.8621H40.3545C41.5228 12.8621 42.4718 11.9098 42.4718 10.746V4.0084H35.7306C34.5661 4.0084 33.6133 4.96067 33.6133 6.12457V12.8621H30.532V6.12457C30.532 3.2602 32.8647 0.928711 35.7306 0.928711H45.5531Z" fill="#1C2F72"/>
<path d="M33.6158 12.8604H30.532V15.9425H33.6158V12.8604Z" fill="#00025F"/>
<path d="M27.3258 12.8604H24.242V15.9425H27.3258V12.8604Z" fill="#0271A0"/>
<path d="M18.6906 18.9336H15.6068V22.0158H18.6906V18.9336Z" fill="#0271A0"/>
</svg>
