<svg width="22" height="24" viewBox="0 0 22 24" fill="none" xmlns="http://www.w3.org/2000/svg">
<path d="M19.8624 23.5001L13.6346 17.212L15.7722 15.0537L22 21.3418L19.8624 23.5001Z" fill="white"/>
<path fill-rule="evenodd" clip-rule="evenodd" d="M16.1244 8.64031C16.1244 13.1361 12.5148 16.7806 8.06219 16.7806C3.60957 16.7806 0 13.1361 0 8.64031C0 4.14454 3.60957 0.5 8.06219 0.5C12.5148 0.5 16.1244 4.14454 16.1244 8.64031ZM14.1087 8.64035C14.1087 12.0122 11.4015 14.7456 8.06206 14.7456C4.72259 14.7456 2.01541 12.0122 2.01541 8.64035C2.01541 5.26852 4.72259 2.53512 8.06206 2.53512C11.4015 2.53512 14.1087 5.26852 14.1087 8.64035Z" fill="white"/>
</svg>
